<?xml version="1.0" encoding="UTF-8" standalone="no"?>
<!DOCTYPE svg PUBLIC "-//W3C//DTD SVG 1.1//EN" "http://www.w3.org/Graphics/SVG/1.1/DTD/svg11.dtd">
<svg width="100%" height="100%" viewBox="0 0 2286 2286" version="1.1" xmlns="http://www.w3.org/2000/svg" xmlns:xlink="http://www.w3.org/1999/xlink" xml:space="preserve" xmlns:serif="http://www.serif.com/" style="fill-rule:evenodd;clip-rule:evenodd;stroke-linejoin:round;stroke-miterlimit:2;">
    <g transform="matrix(1,0,0,1,-27304,-5300)">
        <g id="sat-tracker-light-icon" transform="matrix(26.2493,0,0,30.2759,-223308,-46295.7)">
            <g transform="matrix(3.70029,0,0,3.20817,9546.58,1703.44)">
                <path d="M15.247,21.09C15.18,21.09 15.112,21.089 15.045,21.087C14.769,21.077 14.553,20.847 14.562,20.57C14.57,20.295 14.764,20.096 15.078,20.087C16.426,20.132 17.708,19.631 18.662,18.678C19.617,17.724 20.118,16.45 20.073,15.092C20.065,14.815 20.281,14.585 20.557,14.575C20.884,14.567 21.065,14.783 21.073,15.059C21.127,16.696 20.522,18.233 19.369,19.385C18.265,20.489 16.808,21.09 15.247,21.09Z" style="fill:rgb(0,65,107);fill-rule:nonzero;"/>
            </g>
            <g transform="matrix(3.70029,0,0,3.20817,9546.58,1703.44)">
                <path d="M15.246,23.761C15.181,23.761 15.116,23.76 15.051,23.759C14.774,23.753 14.556,23.523 14.562,23.248C14.567,22.972 14.797,22.783 15.072,22.759C17.136,22.792 19.092,22.026 20.552,20.567C22.012,19.107 22.79,17.161 22.745,15.086C22.739,14.81 22.958,14.581 23.234,14.575C23.509,14.593 23.739,14.788 23.745,15.065C23.796,17.415 22.913,19.62 21.259,21.275C19.65,22.882 17.522,23.761 15.246,23.761Z" style="fill:rgb(0,65,107);fill-rule:nonzero;"/>
            </g>
            <g transform="matrix(3.70029,0,0,3.20817,9546.58,1703.44)">
                <path d="M15.239,18.421C15.169,18.421 15.099,18.419 15.028,18.414C14.753,18.396 14.545,18.157 14.563,17.882C14.581,17.607 14.829,17.395 15.095,17.416C15.705,17.452 16.333,17.229 16.773,16.787C17.215,16.347 17.443,15.734 17.402,15.108C17.385,14.832 17.593,14.595 17.868,14.576C18.146,14.558 18.383,14.767 18.4,15.042C18.461,15.956 18.125,16.851 17.482,17.495C16.886,18.09 16.078,18.421 15.239,18.421Z" style="fill:rgb(0,65,107);fill-rule:nonzero;"/>
            </g>
            <g transform="matrix(3.70029,0,0,3.20817,9546.58,1703.44)">
                <path d="M10.017,15.773C9.976,15.773 9.935,15.769 9.894,15.758C9.723,15.715 9.588,15.585 9.538,15.416C8.92,13.343 9.217,11.502 10.353,10.367C11.482,9.238 13.345,8.939 15.402,9.552C15.571,9.603 15.701,9.738 15.744,9.909C15.788,10.08 15.738,10.26 15.613,10.385L10.37,15.627C10.275,15.722 10.148,15.773 10.017,15.773ZM13.366,10.235C12.406,10.235 11.609,10.525 11.06,11.074C10.339,11.795 10.075,12.938 10.298,14.284L14.27,10.313C13.959,10.261 13.657,10.235 13.366,10.235Z" style="fill:rgb(0,65,107);fill-rule:nonzero;"/>
            </g>
            <g transform="matrix(3.70029,0,0,3.20817,9546.58,1703.44)">
                <path d="M14.523,15.038C14.396,15.038 14.268,14.989 14.17,14.892L12.284,13.006C12.089,12.811 12.089,12.494 12.284,12.299C12.48,12.104 12.796,12.104 12.991,12.299L14.877,14.185C15.072,14.38 15.072,14.696 14.877,14.892C14.779,14.989 14.651,15.038 14.523,15.038Z" style="fill:rgb(0,65,107);fill-rule:nonzero;"/>
            </g>
            <g transform="matrix(3.70029,0,0,3.20817,9546.58,1703.44)">
                <path d="M14.979,16.137C14.348,16.137 13.835,15.624 13.835,14.993C13.835,14.362 14.348,13.85 14.979,13.85C15.609,13.85 16.123,14.362 16.123,14.993C16.123,15.624 15.609,16.137 14.979,16.137ZM14.979,14.85C14.899,14.85 14.835,14.914 14.835,14.993C14.835,15.152 15.123,15.15 15.123,14.993C15.123,14.914 15.059,14.85 14.979,14.85Z" style="fill:rgb(0,65,107);fill-rule:nonzero;"/>
            </g>
            <g transform="matrix(3.70029,0,0,3.20817,9546.58,1703.44)">
                <path d="M9.8,12.935C9.672,12.935 9.544,12.887 9.447,12.789L4.855,8.197C4.66,8.002 4.66,7.686 4.855,7.49L7.476,4.869C7.671,4.674 7.988,4.674 8.183,4.869L12.766,9.452C12.961,9.647 12.961,9.963 12.766,10.159C12.57,10.354 12.254,10.354 12.059,10.159L7.83,5.93L5.916,7.844L10.154,12.082C10.349,12.277 10.349,12.594 10.154,12.789C10.056,12.887 9.928,12.935 9.8,12.935Z" style="fill:rgb(0,65,107);fill-rule:nonzero;"/>
            </g>
            <g transform="matrix(3.70029,0,0,3.20817,9546.58,1703.44)">
                <path d="M4.912,17.015C4.784,17.015 4.656,16.966 4.559,16.868L0.371,12.682C0.277,12.588 0.225,12.461 0.225,12.328C0.225,12.195 0.277,12.068 0.371,11.975L2.993,9.353C3.188,9.158 3.504,9.158 3.7,9.353L7.887,13.54C8.082,13.735 8.082,14.052 7.887,14.247L5.266,16.868C5.168,16.966 5.04,17.015 4.912,17.015ZM1.432,12.328L4.912,15.808L6.826,13.894L3.346,10.413L1.432,12.328Z" style="fill:rgb(0,65,107);fill-rule:nonzero;"/>
            </g>
            <g transform="matrix(3.70029,0,0,3.20817,9546.58,1703.44)">
                <path d="M13.879,8.048C13.751,8.048 13.623,7.999 13.525,7.901L9.338,3.714C9.245,3.62 9.192,3.493 9.192,3.36C9.192,3.228 9.245,3.101 9.338,3.007L11.96,0.386C12.155,0.19 12.472,0.19 12.667,0.386L16.855,4.573C16.948,4.667 17.001,4.793 17.001,4.926C17.001,5.059 16.948,5.186 16.855,5.28L14.232,7.901C14.135,7.999 14.007,8.048 13.879,8.048ZM10.399,3.36L13.879,6.841L15.794,4.926L12.313,1.446L10.399,3.36Z" style="fill:rgb(0,65,107);fill-rule:nonzero;"/>
            </g>
            <g transform="matrix(3.70029,0,0,3.20817,9546.58,1703.44)">
                <path d="M9.923,7.816C9.795,7.816 9.667,7.768 9.57,7.67C9.375,7.475 9.375,7.158 9.57,6.963L11.432,5.101C11.627,4.905 11.944,4.905 12.14,5.101C12.334,5.296 12.334,5.612 12.14,5.808L10.277,7.67C10.179,7.768 10.051,7.816 9.923,7.816Z" style="fill:rgb(0,65,107);fill-rule:nonzero;"/>
            </g>
            <g transform="matrix(3.70029,0,0,3.20817,9546.58,1703.44)">
                <path d="M5.44,12.3C5.312,12.3 5.184,12.251 5.086,12.153C4.891,11.958 4.891,11.642 5.086,11.446L6.948,9.584C7.143,9.389 7.46,9.389 7.655,9.584C7.85,9.779 7.85,10.096 7.655,10.291L5.793,12.153C5.696,12.251 5.568,12.3 5.44,12.3Z" style="fill:rgb(0,65,107);fill-rule:nonzero;"/>
            </g>
            <g transform="matrix(3.70029,0,0,3.20817,9546.58,1703.44)">
                <path d="M15.19,6.737C15.062,6.737 14.934,6.688 14.836,6.59L10.649,2.403C10.454,2.208 10.454,1.892 10.649,1.696C10.844,1.501 11.161,1.501 11.356,1.696L15.543,5.883C15.738,6.079 15.738,6.395 15.543,6.59C15.445,6.688 15.317,6.737 15.19,6.737Z" style="fill:rgb(0,65,107);fill-rule:nonzero;"/>
            </g>
            <g transform="matrix(3.70029,0,0,3.20817,9546.58,1703.44)">
                <path d="M6.223,15.704C6.095,15.704 5.967,15.655 5.869,15.558L1.682,11.371C1.486,11.175 1.486,10.859 1.682,10.664C1.877,10.468 2.193,10.468 2.389,10.664L6.576,14.851C6.771,15.046 6.771,15.362 6.576,15.558C6.479,15.655 6.351,15.704 6.223,15.704Z" style="fill:rgb(0,65,107);fill-rule:nonzero;"/>
            </g>
        </g>
    </g>
</svg>
