<?xml version="1.0" encoding="utf-8"?>
<!-- Generator: Adobe Illustrator 19.2.0, SVG Export Plug-In . SVG Version: 6.00 Build 0)  -->
<svg version="1.1" id="Layer_1" xmlns="http://www.w3.org/2000/svg" xmlns:xlink="http://www.w3.org/1999/xlink" x="0px" y="0px"
	 width="24px" height="24px" viewBox="0 0 24 24" style="enable-background:new 0 0 24 24;" xml:space="preserve">
<g>
	<path d="M14.562,20.571c-0.009,0.276,0.208,0.507,0.483,0.517c0.067,0.002,0.134,0.003,0.2,0.003c1.562,0,3.021-0.602,4.125-1.706
		c1.151-1.152,1.757-2.688,1.703-4.325c-0.009-0.275-0.201-0.497-0.517-0.483c-0.275,0.01-0.492,0.24-0.483,0.517
		c0.045,1.357-0.456,2.631-1.41,3.585s-2.221,1.455-3.585,1.41C14.752,20.091,14.57,20.296,14.562,20.571z"/>
	<path d="M23.234,14.576c-0.276,0.006-0.495,0.234-0.489,0.511c0.045,2.074-0.733,4.021-2.193,5.479
		c-1.46,1.46-3.414,2.228-5.479,2.192c-0.274-0.004-0.505,0.213-0.511,0.489c-0.006,0.275,0.213,0.505,0.489,0.511
		c0.065,0.001,0.13,0.002,0.195,0.002c2.275,0,4.404-0.879,6.013-2.486c1.654-1.654,2.537-3.859,2.486-6.209
		C23.739,14.789,23.51,14.599,23.234,14.576z"/>
	<path d="M15.094,17.417c-0.275-0.027-0.513,0.191-0.531,0.467c-0.018,0.275,0.19,0.513,0.467,0.531
		c0.069,0.005,0.139,0.007,0.208,0.007c0.841,0,1.649-0.332,2.244-0.928c0.645-0.645,0.979-1.537,0.919-2.451
		c-0.019-0.274-0.24-0.491-0.532-0.466c-0.275,0.019-0.483,0.256-0.466,0.532c0.041,0.626-0.188,1.237-0.628,1.678
		C16.334,17.228,15.721,17.459,15.094,17.417z"/>
	<path d="M16.123,14.993c0-0.631-0.514-1.144-1.145-1.144c-0.129,0-0.248,0.034-0.363,0.073l-1.27-1.27l2.268-2.268
		c0.125-0.125,0.175-0.306,0.131-0.476c-0.043-0.171-0.173-0.306-0.342-0.356c-1.004-0.3-1.952-0.38-2.794-0.258L10.63,7.316
		l1.155-1.155l1.74,1.74c0.098,0.098,0.226,0.146,0.354,0.146s0.256-0.049,0.354-0.146l2.622-2.621
		c0.094-0.094,0.146-0.221,0.146-0.354s-0.053-0.26-0.146-0.354l-4.188-4.188c-0.195-0.195-0.512-0.195-0.707,0l-1.31,1.31
		c0,0-0.001,0.001-0.001,0.001s-0.001,0.001-0.001,0.001l-1.31,1.31c-0.195,0.195-0.195,0.512,0,0.707l1.74,1.74L9.923,6.609
		l-1.74-1.74c-0.195-0.195-0.512-0.195-0.707,0L4.855,7.49c-0.195,0.195-0.195,0.512,0,0.707l1.74,1.74L5.44,11.093L3.7,9.353
		c-0.195-0.195-0.512-0.195-0.707,0l-1.31,1.31c0,0-0.001,0.001-0.001,0.001s-0.001,0.001-0.001,0.001l-1.31,1.31
		c-0.195,0.195-0.195,0.512,0,0.707l4.188,4.188c0.094,0.094,0.221,0.146,0.354,0.146s0.26-0.053,0.354-0.146l2.621-2.622
		c0.195-0.195,0.195-0.512,0-0.707l-1.74-1.74l1.155-1.155l1.978,1.978c-0.122,0.842-0.042,1.79,0.258,2.794
		c0.05,0.169,0.186,0.299,0.356,0.342c0.041,0.011,0.082,0.016,0.123,0.016c0.131,0,0.259-0.052,0.354-0.146l2.268-2.268l1.27,1.27
		c-0.039,0.116-0.073,0.234-0.073,0.363c0,0.631,0.513,1.145,1.144,1.145S16.123,15.624,16.123,14.993z M12.313,1.446l3.48,3.48
		L15.19,5.53L11.71,2.05L12.313,1.446z M11.003,2.757l3.48,3.48l-0.604,0.603L12.14,5.102c0,0-0.001-0.001-0.001-0.001
		S12.138,5.1,12.138,5.099l-1.739-1.739L11.003,2.757z M4.912,15.808l-3.48-3.48l0.604-0.604l3.481,3.48L4.912,15.808z
		 M6.223,14.497l-3.48-3.48l0.604-0.604l3.48,3.48L6.223,14.497z M5.916,7.844L7.83,5.93l3.675,3.675
		c-0.433,0.186-0.824,0.435-1.152,0.762c-0.327,0.327-0.576,0.719-0.763,1.152L5.916,7.844z M10.298,14.285
		c-0.224-1.347,0.041-2.49,0.762-3.211c0.555-0.554,1.358-0.838,2.313-0.838c0.286,0,0.587,0.025,0.897,0.077L10.298,14.285z
		 M14.835,14.993c0-0.079,0.064-0.144,0.144-0.144c0.08,0,0.145,0.064,0.145,0.144C15.124,15.152,14.835,15.154,14.835,14.993z"/>
</g>
</svg>
